<?xml version="1.0" standalone="no"?>
<!DOCTYPE svg PUBLIC "-//W3C//DTD SVG 20010904//EN"
 "http://www.w3.org/TR/2001/REC-SVG-20010904/DTD/svg10.dtd">
<svg version="1.0" xmlns="http://www.w3.org/2000/svg"
 width="388.000000pt" height="388.000000pt" viewBox="0 0 388.000000 388.000000"
 preserveAspectRatio="xMidYMid meet">
<metadata>
Created by potrace 1.11, written by Peter Selinger 2001-2013
</metadata>
<g transform="translate(0.000000,388.000000) scale(0.100000,-0.100000)"
fill="#000000" stroke="none">
<path d="M1928 3863 c-24 -27 -20 -91 8 -141 14 -23 29 -40 34 -37 4 3 6 -4 3
-15 -3 -12 -2 -20 3 -19 18 3 34 -1 33 -8 -4 -22 5 -32 51 -57 28 -15 50 -30
50 -34 0 -8 52 -34 57 -29 2 2 -22 21 -52 42 -30 20 -55 39 -55 42 0 6 18 -5
56 -34 17 -13 36 -23 42 -23 6 0 12 -3 14 -7 5 -11 66 -53 77 -53 5 0 11 3 14
8 2 4 2 1 1 -6 -2 -7 3 -15 10 -18 8 -3 17 -13 21 -22 5 -13 2 -12 -15 3 -14
13 -19 14 -15 4 3 -8 31 -27 63 -44 31 -16 60 -34 64 -40 4 -5 8 -6 8 -1 0 5
9 -1 19 -13 11 -12 21 -21 23 -20 2 1 22 -8 46 -20 62 -31 51 -18 -25 34 -37
25 -64 45 -59 45 5 0 1 9 -9 20 -10 11 -22 17 -27 14 -5 -3 -1 -12 9 -21 16
-13 16 -13 -5 -3 -18 9 -21 14 -12 25 9 11 16 12 31 2 10 -6 19 -14 19 -17 0
-3 10 -6 21 -7 24 -2 35 -10 26 -19 -4 -4 -13 -1 -22 6 -10 8 -15 9 -15 2 0
-17 43 -38 48 -23 2 6 8 11 14 11 7 0 6 -5 -2 -14 -9 -12 -4 -18 29 -35 22
-12 42 -17 46 -12 3 5 -3 11 -12 13 -12 2 -14 6 -6 11 6 4 18 0 26 -8 9 -8 21
-15 27 -15 6 0 8 -5 5 -10 -4 -6 -3 -10 2 -9 19 3 34 -2 28 -10 -3 -5 0 -13 6
-17 7 -4 9 -3 6 3 -4 6 0 13 8 17 8 3 17 1 20 -5 4 -5 12 -6 18 -2 8 5 8 2 0
-9 -13 -15 -8 -28 9 -28 5 0 6 6 2 13 -6 8 -3 8 9 -1 9 -8 21 -11 27 -7 5 3
10 1 10 -5 0 -6 4 -9 9 -6 5 4 7 -3 4 -14 -5 -18 5 -25 30 -21 4 1 10 -6 13
-14 5 -13 9 -13 22 -3 12 10 14 10 8 1 -5 -9 -1 -13 11 -13 14 0 18 8 18 33
-1 23 -5 31 -15 29 -8 -2 -12 0 -7 4 8 9 -50 38 -73 36 -10 -1 -11 0 -2 4 6 3
10 9 8 13 -3 4 1 8 9 8 8 0 15 -6 15 -14 0 -15 26 -18 35 -3 3 6 11 10 18 10
6 0 3 -6 -7 -13 -17 -12 -17 -14 -2 -20 9 -4 16 -1 16 6 0 8 3 7 9 -2 13 -20
44 -24 37 -5 -3 9 -2 12 5 9 6 -4 8 -13 5 -21 -3 -7 2 -20 10 -29 28 -27 32
-19 25 48 -1 5 -5 6 -10 3 -5 -3 -14 1 -21 9 -10 12 -9 15 6 15 11 0 25 -9 32
-20 7 -11 19 -20 27 -20 8 0 15 -5 15 -11 0 -6 -9 -8 -20 -4 -14 4 -20 2 -18
-7 2 -7 12 -15 22 -18 11 -3 24 -14 30 -25 6 -11 17 -24 24 -28 7 -5 10 -12 7
-17 -3 -5 0 -12 6 -16 8 -4 9 -3 5 4 -4 7 -1 12 6 12 10 0 11 2 0 8 -12 8 -7
42 7 42 18 0 29 -24 21 -46 -7 -17 -6 -23 3 -21 7 1 11 -6 9 -16 -3 -17 -2
-17 17 0 11 9 16 20 11 23 -5 3 -5 11 0 20 9 13 10 13 11 0 1 -8 3 -25 4 -38
1 -15 -2 -21 -10 -19 -6 3 -12 -1 -12 -9 0 -8 6 -13 13 -10 7 3 15 2 17 -2 2
-4 2 -2 1 5 -2 7 1 15 7 18 5 4 6 11 3 17 -4 6 -1 9 5 7 7 -3 13 -9 13 -14 0
-17 18 -45 29 -45 6 0 3 7 -5 16 -9 8 -14 20 -10 25 7 12 -15 41 -26 34 -5 -3
-11 -2 -14 3 -8 13 27 11 43 -2 7 -5 17 -19 21 -31 7 -16 9 -17 9 -3 1 22 -37
58 -61 58 -10 0 -18 6 -19 13 0 6 -2 21 -4 32 -4 20 -3 20 11 1 7 -11 17 -16
21 -12 4 4 1 11 -7 16 -14 9 -6 15 14 11 5 -1 4 4 -2 12 -7 8 -10 17 -7 20 3
4 2 4 -3 1 -4 -3 -8 -10 -8 -15 -1 -5 -2 -11 -3 -14 0 -3 -10 -1 -20 5 -12 6
-22 6 -25 1 -3 -5 -14 -7 -25 -4 -13 3 -20 -2 -24 -17 -6 -23 -32 -24 -56 -2
-19 18 -7 26 18 11 28 -18 37 -5 17 25 -10 16 -23 24 -35 21 -21 -4 -60 19
-49 30 3 4 18 -1 33 -11 21 -14 26 -14 24 -3 -4 23 20 71 32 63 8 -4 7 -9 -2
-15 -11 -7 -10 -11 6 -24 15 -13 16 -15 3 -11 -9 2 -19 -1 -21 -9 -9 -21 5
-26 25 -8 13 12 18 13 18 3 0 -7 3 -10 7 -7 3 4 -2 16 -12 27 -25 27 -14 35
13 10 12 -12 22 -16 22 -11 0 6 -9 15 -20 21 -11 6 -17 16 -14 22 4 6 3 8 -3
5 -5 -3 -21 5 -35 18 -22 20 -27 21 -32 9 -4 -10 -2 -13 7 -8 8 5 7 2 -2 -9
-12 -16 -16 -16 -30 -3 -18 17 -37 9 -36 -14 0 -9 9 -15 22 -14 12 0 19 -4 16
-9 -3 -5 -16 -6 -30 -2 -18 4 -23 2 -17 -6 5 -8 3 -9 -5 -5 -7 5 -22 0 -34
-11 -22 -18 -22 -18 -4 3 16 20 14 34 -5 34 -5 0 -6 -6 -2 -12 5 -9 2 -8 -9 1
-10 8 -15 16 -12 19 5 6 11 7 52 15 28 6 26 25 -3 40 -26 13 -26 14 -5 20 11
3 19 2 17 -1 -4 -7 19 -33 29 -32 3 0 6 0 8 -1 19 -6 37 -6 37 1 0 10 -31 24
-47 21 -8 -1 -10 5 -6 15 4 11 3 15 -5 10 -6 -3 -14 0 -19 7 -4 8 -18 19 -31
26 -12 7 -20 16 -18 20 3 5 -4 8 -17 7 -16 -1 -22 4 -21 17 1 10 -1 16 -4 13
-3 -3 -11 -1 -18 4 -6 6 -18 9 -25 8 -8 -2 -13 2 -12 7 1 6 -7 12 -18 12 -10
1 -19 -1 -19 -5 0 -12 40 -33 50 -27 6 3 7 -1 4 -10 -6 -14 -8 -14 -25 1 -11
9 -19 13 -19 8 0 -5 -5 -2 -10 6 -5 8 -7 22 -4 31 2 9 -2 19 -10 22 -10 4 -13
1 -10 -7 3 -8 0 -17 -6 -21 -6 -3 -9 -1 -8 6 2 7 -2 13 -9 14 -6 0 -15 4 -20
9 -5 5 -3 6 5 2 6 -4 12 -2 12 3 0 6 -7 11 -15 11 -7 0 -19 8 -25 18 -11 16
-11 16 -6 0 3 -10 1 -18 -4 -18 -6 0 -10 10 -10 23 0 16 -3 18 -9 9 -6 -11
-10 -10 -15 4 -6 16 -8 16 -16 4 -8 -13 -10 -12 -10 3 0 9 -7 17 -15 17 -8 0
-15 5 -15 10 0 6 -9 10 -20 10 -11 0 -20 5 -20 10 0 6 -3 9 -7 9 -22 -4 -43 2
-43 12 0 5 5 7 12 3 7 -4 8 -3 4 4 -4 6 -14 8 -23 5 -11 -4 -14 -3 -9 5 5 8 1
10 -10 5 -13 -5 -15 -3 -9 7 6 10 2 11 -19 6 -21 -5 -26 -3 -26 11 0 15 2 16
10 3 5 -8 10 -10 10 -4 0 18 -13 24 -27 13 -10 -9 -13 -6 -14 12 0 13 -3 18
-6 12 -2 -7 -9 -13 -14 -13 -6 0 -8 4 -5 9 7 11 -30 45 -42 37 -5 -3 -21 4
-34 17 -32 28 -46 31 -66 15 -9 -7 -13 -8 -10 -3 5 8 -32 12 -111 13 -102 2
-120 0 -133 -15z m286 -9 c5 -14 4 -15 -9 -4 -17 14 -19 20 -6 20 5 0 12 -7
15 -16z m94 -49 c-3 -3 -9 2 -12 12 -6 14 -5 15 5 6 7 -7 10 -15 7 -18z m-78
1 c0 -3 -4 -8 -10 -11 -5 -3 -10 -1 -10 4 0 6 5 11 10 11 6 0 10 -2 10 -4z
m300 -146 c0 -5 -5 -10 -11 -10 -5 0 -7 5 -4 10 3 6 8 10 11 10 2 0 4 -4 4
-10z m-480 -41 c0 -14 -17 -10 -23 5 -4 10 -1 13 9 9 7 -3 14 -9 14 -14z m570
-19 c8 -5 11 -10 5 -10 -5 0 -17 5 -25 10 -8 5 -10 10 -5 10 6 0 17 -5 25 -10z
m44 -79 c14 -15 14 -20 3 -30 -12 -9 -14 -7 -13 11 1 15 -6 24 -24 29 -22 6
-22 7 -4 8 11 1 28 -7 38 -18z m154 -11 c7 -12 16 -19 20 -16 4 2 22 -8 40
-23 l33 -27 -30 -2 c-17 -1 -31 2 -31 7 0 5 10 7 23 4 21 -4 21 -4 2 8 -11 7
-23 16 -26 21 -3 6 -9 9 -13 9 -10 -2 -46 23 -46 31 0 15 15 8 28 -12z m-183
0 c3 -6 -1 -7 -9 -4 -18 7 -21 14 -7 14 6 0 13 -4 16 -10z m79 -16 c5 -14 4
-15 -9 -4 -17 14 -19 20 -6 20 5 0 12 -7 15 -16z m-21 -18 c4 -10 1 -13 -8 -9
-8 3 -12 9 -9 14 7 12 11 11 17 -5z m122 4 c3 -5 1 -10 -4 -10 -6 0 -11 5 -11
10 0 6 2 10 4 10 3 0 8 -4 11 -10z m-85 -19 c0 -6 -4 -12 -8 -15 -5 -3 -9 1
-9 9 0 8 4 15 9 15 4 0 8 -4 8 -9z m-387 -16 c-3 -9 -8 -14 -10 -11 -3 3 -2 9
2 15 9 16 15 13 8 -4z m441 0 c3 -8 1 -15 -5 -15 -6 0 -7 -5 -3 -12 5 -7 11
-5 21 7 10 15 10 21 0 28 -9 6 -8 7 3 4 8 -2 15 -10 15 -18 0 -8 7 -14 15 -14
8 0 18 -4 22 -9 3 -5 14 -11 23 -12 24 -4 28 -11 11 -17 -9 -4 -22 0 -30 8
-22 22 -43 19 -23 -3 14 -15 14 -19 3 -19 -8 0 -15 3 -14 6 2 19 -4 22 -17 11
-13 -11 -14 -10 -9 5 5 12 4 16 -4 11 -12 -7 -25 10 -27 36 -2 22 11 24 19 3z
m226 -95 c-12 -16 -24 -30 -26 -30 -3 0 3 14 13 30 9 17 21 30 26 30 5 0 -1
-13 -13 -30z m-300 8 c0 -4 -4 -8 -9 -8 -6 0 -12 4 -15 8 -3 5 1 9 9 9 8 0 15
-4 15 -9z m40 -30 c0 -7 -4 -19 -9 -27 -7 -10 -9 -7 -8 12 2 26 17 39 17 15z
m284 -74 c8 -20 -8 -17 -28 5 -17 19 -17 19 2 14 12 -3 23 -11 26 -19z m-244
12 c0 -3 -4 -8 -10 -11 -5 -3 -10 -1 -10 4 0 6 5 11 10 11 6 0 10 -2 10 -4z
m334 -42 c2 -10 -3 -29 -10 -43 -7 -13 -10 -29 -7 -34 4 -6 1 -7 -6 -2 -7 4
-11 16 -8 26 3 10 -1 23 -9 30 -8 6 -14 16 -14 21 0 5 7 2 16 -6 23 -23 32
-19 26 12 -2 15 -2 24 2 20 4 -3 9 -14 10 -24z m-89 -24 c3 -5 1 -10 -4 -10
-6 0 -11 5 -11 10 0 6 2 10 4 10 3 0 8 -4 11 -10z"/>
<path d="M1679 3551 c-2 -6 -18 -12 -36 -15 -53 -6 -165 -136 -134 -156 9 -5
8 -11 -4 -24 -10 -9 -15 -20 -12 -23 4 -3 0 -18 -8 -34 -8 -15 -11 -30 -6 -33
10 -7 25 23 22 43 -1 7 2 10 8 6 6 -3 12 -1 12 4 1 6 3 16 4 21 1 6 3 16 4 23
1 8 4 8 11 -3 6 -10 3 -24 -10 -45 -23 -37 -23 -100 -1 -118 14 -10 14 -10 3
5 -12 14 -11 16 8 11 11 -3 23 -10 27 -16 3 -6 1 -7 -5 -3 -7 4 -12 1 -12 -7
0 -17 43 -39 88 -44 24 -3 32 0 32 12 0 8 5 15 10 15 6 0 10 -8 10 -19 0 -18
42 -35 55 -23 10 10 35 10 29 0 -10 -16 28 -37 49 -26 10 5 21 7 25 4 3 -3 0
-6 -6 -6 -7 0 -12 -5 -12 -11 0 -5 5 -7 10 -4 6 3 10 1 10 -4 0 -6 7 -11 16
-11 14 0 15 2 3 18 -11 14 -10 13 9 -2 23 -20 30 -32 12 -21 -5 3 -10 2 -10
-4 0 -6 12 -10 28 -10 43 0 57 -3 70 -18 15 -16 8 -17 -20 -2 -16 9 -19 8 -15
-3 2 -7 10 -12 16 -10 6 1 11 -2 11 -8 0 -6 3 -9 8 -8 4 1 29 -8 55 -20 26
-13 53 -20 59 -16 6 4 8 3 5 -3 -5 -8 51 -44 73 -47 3 -1 11 -5 19 -10 8 -5
26 -10 40 -12 25 -3 25 -2 7 12 -18 12 -15 19 7 15 12 -2 8 17 -5 22 -8 3 -6
6 5 6 9 1 17 -4 17 -10 0 -5 4 -8 9 -4 5 3 13 0 17 -6 4 -8 9 -7 15 2 7 11 9
10 9 -3 0 -10 -5 -18 -12 -18 -6 0 -9 -2 -6 -5 3 -3 17 -1 32 4 20 8 26 7 26
-3 0 -9 10 -13 29 -12 17 1 28 -1 26 -5 -3 -3 4 -14 15 -24 11 -10 20 -14 20
-9 0 5 4 2 10 -6 7 -12 12 -12 28 4 11 9 19 25 17 34 -2 9 -4 24 -4 32 -1 13
-2 13 -11 0 -7 -11 -10 -11 -10 -2 0 7 -4 11 -8 8 -11 -7 -25 5 -40 34 -13 25
-13 25 5 4 10 -11 24 -19 31 -16 6 2 12 -1 12 -8 0 -6 5 -8 10 -5 6 3 13 -1
16 -9 3 -9 10 -13 15 -10 5 3 7 9 4 14 -3 5 -1 11 3 14 5 3 8 -6 8 -20 -1 -14
-7 -29 -14 -33 -10 -6 -9 -11 4 -22 16 -12 17 -12 11 3 -3 9 1 22 9 29 8 6 12
14 9 17 -3 3 0 11 6 19 8 9 8 13 1 13 -7 0 -9 7 -5 17 4 11 3 14 -5 9 -7 -4
-12 -2 -12 4 0 6 -5 8 -12 4 -7 -5 -8 -3 -2 7 4 8 9 21 11 29 1 11 -2 10 -12
-3 -8 -11 -16 -14 -20 -8 -3 6 5 16 19 22 20 10 23 15 16 30 -15 27 -12 47 4
27 8 -11 22 -16 35 -13 19 3 21 2 11 -10 -6 -8 -18 -11 -25 -8 -20 7 -11 -36
11 -51 9 -7 14 -21 11 -32 -4 -17 -5 -16 -6 4 0 12 -6 22 -12 22 -6 0 -8 -7
-5 -16 3 -9 6 -20 6 -26 0 -6 7 -8 15 -4 8 3 15 1 15 -5 0 -6 4 -8 9 -5 5 3
11 -1 15 -9 3 -8 1 -17 -3 -20 -5 -3 -11 2 -15 10 -3 8 -10 15 -16 15 -6 0 -8
-5 -5 -10 3 -6 -1 -13 -9 -16 -19 -7 -21 -26 -3 -23 26 3 38 -1 31 -13 -4 -6
-3 -8 4 -4 6 3 17 -1 25 -9 20 -20 24 -19 30 5 3 10 0 18 -5 17 -6 -1 -13 4
-16 12 -3 9 0 11 8 6 9 -5 11 -4 6 3 -4 7 -3 12 3 12 5 0 14 -8 20 -17 5 -10
13 -14 17 -10 4 4 16 0 26 -10 20 -18 24 -33 8 -33 -5 0 -9 5 -7 11 1 6 -6 13
-16 14 -11 2 -16 1 -13 -2 3 -4 1 -12 -5 -19 -8 -10 -6 -12 10 -9 20 4 25 -5
22 -34 -2 -7 3 -10 9 -6 6 4 9 13 6 21 -3 8 1 17 9 20 8 4 12 11 8 17 -3 6 -1
7 5 3 6 -4 9 -13 5 -21 -3 -8 -1 -15 4 -15 18 0 11 39 -8 45 -11 4 -17 10 -14
15 3 5 -4 11 -15 15 -23 7 -27 22 -5 22 8 0 15 -4 15 -8 0 -4 8 -6 18 -4 9 1
23 -2 30 -8 9 -7 11 -6 6 6 -3 9 -13 16 -22 16 -49 2 -67 11 -44 24 4 2 1 2
-5 1 -7 -2 -13 1 -13 7 0 6 -7 9 -15 5 -23 -8 -44 20 -39 54 3 16 1 30 -4 30
-5 0 -9 -11 -9 -25 0 -26 -9 -42 -18 -34 -2 3 0 20 5 39 11 40 7 48 -16 29
-15 -12 -16 -11 -10 9 6 17 4 23 -6 21 -25 -3 -39 1 -34 10 3 5 -2 8 -12 7 -9
0 -16 4 -15 11 1 6 -4 14 -13 17 -9 4 -12 2 -8 -5 7 -11 -12 -29 -31 -29 -5 0
-3 4 5 10 8 5 11 12 7 16 -4 4 -15 0 -25 -9 -17 -15 -18 -15 -19 3 -1 11 2 22
8 25 5 3 6 -2 3 -12 -5 -17 -5 -17 9 -1 8 10 18 14 22 10 5 -4 5 -2 1 5 -8 14
-47 8 -57 -9 -4 -7 -5 -16 -2 -22 3 -5 1 -6 -5 -2 -6 4 -9 13 -6 21 4 8 -1 18
-10 21 -9 3 -16 11 -16 17 0 5 9 2 19 -8 19 -16 20 -16 18 4 -1 12 -6 20 -13
17 -6 -2 -31 5 -55 17 -24 11 -48 19 -53 18 -4 -1 -16 4 -25 11 -14 11 -15 11
-6 -2 6 -9 1 -6 -10 7 -19 21 -22 22 -50 7 -18 -9 -25 -10 -17 -3 23 24 12 32
-13 9 -14 -13 -25 -20 -25 -15 0 4 7 13 17 20 16 12 9 40 -8 29 -5 -3 -7 -10
-4 -15 4 -5 1 -9 -4 -9 -6 0 -11 6 -11 14 0 8 -7 16 -14 19 -11 4 -13 1 -9
-11 4 -12 0 -11 -16 6 -12 12 -27 22 -34 23 -7 0 -20 2 -29 4 -10 2 -22 -4
-28 -13 -5 -10 -10 -13 -10 -9 0 4 7 19 16 32 9 14 12 25 6 25 -6 0 -13 -6
-15 -12 -3 -7 -6 -2 -7 12 l-1 25 -13 -24 c-8 -15 -16 -20 -20 -12 -4 6 -3 11
2 11 5 0 9 6 9 14 0 8 -8 11 -19 8 -10 -2 -18 -8 -18 -13 0 -5 -4 -9 -8 -9 -5
0 -9 7 -9 15 0 8 4 12 8 9 4 -2 10 0 14 6 3 6 -4 10 -16 10 -12 0 -19 3 -16 7
11 10 -13 33 -34 33 -11 0 -19 -7 -19 -17 -1 -14 -6 -12 -25 10 -14 15 -25 23
-25 18 0 -6 -8 -11 -17 -11 -13 0 -14 3 -5 12 17 17 15 33 -2 19 -16 -13 -32
2 -21 19 3 6 2 10 -4 10 -5 0 -12 -6 -14 -12 -3 -8 -6 -6 -6 5 -1 10 -7 17
-13 16 -7 -1 -19 -1 -27 0 -21 2 -2 16 21 16 12 0 22 7 24 18 1 11 -2 14 -9
10 -22 -14 -42 -12 -53 3 -7 9 -13 11 -15 5z m-62 -46 c0 -8 -4 -15 -9 -15
-10 0 -11 14 -1 23 9 10 10 9 10 -8z m42 -34 c-3 -6 -10 -7 -18 -2 -7 5 -10
14 -6 21 9 14 29 -2 24 -19z m256 -79 c1 -12 -3 -22 -8 -22 -5 0 -7 9 -4 20 3
11 1 20 -4 20 -5 0 -9 -5 -9 -12 0 -6 -3 -9 -6 -5 -9 9 6 29 19 24 6 -2 11
-13 12 -25z m-7 -37 c3 -3 -4 -4 -16 -2 -12 2 -24 6 -28 10 -4 3 4 4 16 2 12
-2 25 -7 28 -10z m207 -95 c3 -6 -1 -7 -9 -4 -18 7 -21 14 -7 14 6 0 13 -4 16
-10z m132 -32 c-3 -8 -6 -5 -6 6 -1 11 2 17 5 13 3 -3 4 -12 1 -19z m115 -42
c3 3 9 1 12 -4 5 -9 -14 -9 -34 -2 -3 1 -9 2 -13 1 -5 -1 -6 3 -3 8 4 5 2 12
-4 16 -5 3 -10 -1 -10 -9 0 -20 -13 -27 -30 -14 -13 8 -12 9 2 5 11 -4 18 2
22 16 l5 21 24 -22 c13 -12 26 -20 29 -16z m-731 -3 c29 -17 38 -33 19 -33 -6
0 -13 6 -16 14 -3 9 -12 12 -21 9 -10 -4 -14 -2 -10 4 4 6 1 14 -5 16 -7 3 -9
6 -5 6 5 1 22 -7 38 -16z m84 -23 c-3 -5 -1 -10 6 -10 7 0 10 -3 6 -6 -9 -9
-28 6 -22 17 4 5 8 9 11 9 3 0 2 -4 -1 -10z m593 -16 c8 -2 17 -6 20 -10 4 -4
-1 -4 -12 0 -15 5 -17 2 -13 -14 3 -11 1 -18 -4 -14 -5 3 -9 12 -9 20 0 8 -4
14 -10 14 -5 0 -10 5 -10 11 0 6 5 7 13 2 6 -4 18 -8 25 -9z m-488 -26 c0 -4
-4 -8 -9 -8 -6 0 -12 4 -15 8 -3 5 1 9 9 9 8 0 15 -4 15 -9z m537 -10 c-3 -8
-6 -5 -6 6 -1 11 2 17 5 13 3 -3 4 -12 1 -19z m-17 -13 c14 -19 14 -19 -2 -6
-10 7 -18 18 -18 24 0 6 1 8 3 6 1 -2 9 -13 17 -24z m180 11 c0 -2 -8 -10 -17
-17 -16 -13 -17 -12 -4 4 13 16 21 21 21 13z m-77 -15 c4 -1 7 -9 7 -19 0 -10
5 -23 12 -30 9 -9 9 -15 -1 -24 -10 -11 -11 -9 -5 5 4 12 2 17 -7 15 -8 -2
-13 6 -14 19 0 12 -3 25 -7 29 -4 3 -6 -3 -3 -15 2 -11 -1 -21 -7 -21 -5 0 -8
6 -5 14 3 7 1 18 -5 24 -7 7 -5 10 8 7 11 -2 22 -4 27 -4z m64 -38 c0 -7 -4
-10 -8 -7 -4 2 -9 0 -11 -6 -2 -6 -8 -2 -14 7 -9 15 -8 18 11 18 12 0 22 -5
22 -12z m106 -13 c-3 -11 -10 -23 -16 -27 -6 -3 -7 -1 -3 5 4 7 2 12 -3 12 -6
0 -11 5 -11 11 0 5 4 8 9 4 5 -3 12 -1 16 5 10 16 14 12 8 -10z m-249 -6 c3
-8 2 -12 -4 -9 -6 3 -10 10 -10 16 0 14 7 11 14 -7z m40 -20 c3 -8 2 -12 -4
-9 -6 3 -10 10 -10 16 0 14 7 11 14 -7z m-358 -21 c-6 -6 -36 9 -36 18 0 5 9
4 20 -3 10 -7 18 -14 16 -15z m72 5 c-2 -6 8 -12 22 -12 27 0 45 -19 35 -36
-4 -6 -3 -10 2 -9 22 4 33 -3 33 -18 0 -11 -3 -14 -8 -7 -4 6 -17 15 -30 18
-29 10 -74 54 -67 67 8 13 15 11 13 -3z m257 -18 c3 -6 -1 -7 -9 -4 -18 7 -21
14 -7 14 6 0 13 -4 16 -10z m95 0 c0 -5 -5 -10 -11 -10 -5 0 -7 5 -4 10 3 6 8
10 11 10 2 0 4 -4 4 -10z m184 -28 c14 8 17 7 14 -3 -3 -8 2 -23 11 -34 16
-20 16 -20 -7 -1 -21 18 -24 18 -39 3 -14 -14 -14 -18 -2 -33 13 -16 12 -16
-6 -6 -11 6 -27 16 -35 23 -13 9 -13 10 2 6 9 -3 22 0 28 8 9 11 7 18 -9 34
-12 12 -21 27 -21 34 0 6 10 0 23 -15 18 -21 26 -24 41 -16z m-244 3 c11 -13
10 -14 -4 -9 -9 3 -16 10 -16 15 0 13 6 11 20 -6z m285 -4 c3 -5 2 -12 -3 -15
-5 -3 -9 1 -9 9 0 17 3 19 12 6z m-330 -11 c3 -5 1 -10 -4 -10 -6 0 -11 5 -11
10 0 6 2 10 4 10 3 0 8 -4 11 -10z m60 -20 c3 -6 -1 -7 -9 -4 -18 7 -21 14 -7
14 6 0 13 -4 16 -10z m25 -34 c0 -3 -4 -8 -10 -11 -5 -3 -10 -1 -10 4 0 6 5
11 10 11 6 0 10 -2 10 -4z"/>
<path d="M2143 2963 c9 -9 20 -13 24 -9 4 4 1 11 -7 16 -25 16 -35 11 -17 -7z"/>
<path d="M1762 3514 c-11 -12 -9 -14 7 -14 11 0 23 -4 26 -10 3 -5 1 -10 -4
-10 -6 0 -11 -5 -11 -11 0 -8 4 -8 13 -1 10 9 19 7 35 -4 12 -8 20 -19 17 -24
-10 -16 13 -20 25 -5 9 11 9 15 1 15 -7 0 -23 11 -37 25 -14 14 -30 25 -37 25
-8 0 -6 4 3 11 13 9 13 10 -2 6 -9 -3 -18 -2 -20 3 -2 4 -9 2 -16 -6z"/>
<path d="M2176 3512 c-2 -4 13 -17 34 -30 24 -13 41 -18 45 -12 3 6 0 10 -8
10 -8 0 -24 9 -37 20 -26 23 -27 23 -34 12z"/>
<path d="M2895 3361 c-3 -5 -1 -12 5 -16 5 -3 10 1 10 9 0 18 -6 21 -15 7z"/>
<path d="M2046 3332 c-3 -5 1 -9 9 -9 8 0 15 4 15 9 0 4 -4 8 -9 8 -6 0 -12
-4 -15 -8z"/>
<path d="M3113 3313 c9 -14 -28 -37 -43 -28 -15 10 -30 -4 -23 -21 4 -12 8
-13 14 -3 6 10 11 10 22 0 13 -10 16 -8 22 9 5 17 10 19 21 9 8 -6 14 -10 15
-8 6 31 7 40 2 35 -4 -3 -13 0 -21 7 -12 9 -14 9 -9 0z"/>
<path d="M2550 3300 c0 -5 5 -10 11 -10 5 0 7 5 4 10 -3 6 -8 10 -11 10 -2 0
-4 -4 -4 -10z"/>
<path d="M2884 3252 c4 -7 1 -15 -7 -18 -10 -4 -14 -17 -12 -40 3 -40 13 -54
24 -35 7 10 10 9 14 -3 4 -9 16 -16 27 -16 12 0 19 -4 15 -9 -3 -5 8 -19 24
-30 l29 -21 -6 22 c-4 16 -2 19 8 13 9 -5 11 -4 6 4 -6 9 -11 9 -22 0 -11 -9
-18 -9 -26 -1 -7 7 -9 13 -5 13 6 1 14 3 32 8 3 0 -9 14 -25 29 -16 16 -27 32
-23 36 4 4 -1 4 -11 0 -15 -6 -17 -4 -11 6 5 9 4 11 -4 6 -9 -6 -8 -14 3 -32
18 -27 20 -34 7 -34 -5 0 -12 9 -16 19 -4 13 -12 18 -23 15 -13 -5 -14 -4 -3
4 8 6 11 17 8 25 -3 9 -1 18 6 20 9 3 8 8 -2 18 -9 9 -11 10 -7 1z"/>
<path d="M2959 3211 c8 -5 10 -14 5 -22 -7 -12 -5 -12 9 0 19 15 14 31 -11 31
-14 0 -14 -2 -3 -9z"/>
<path d="M3180 3200 c0 -5 7 -7 15 -4 8 4 15 8 15 10 0 2 -7 4 -15 4 -8 0 -15
-4 -15 -10z"/>
<path d="M3210 3179 c0 -5 5 -7 10 -4 6 3 10 8 10 11 0 2 -4 4 -10 4 -5 0 -10
-5 -10 -11z"/>
<path d="M3235 3160 c3 -5 8 -10 11 -10 2 0 4 5 4 10 0 6 -5 10 -11 10 -5 0
-7 -4 -4 -10z"/>
<path d="M3000 3146 c0 -2 8 -10 18 -17 15 -13 16 -12 3 4 -13 16 -21 21 -21
13z"/>
<path d="M3056 3118 c3 -5 10 -6 15 -3 13 9 11 12 -6 12 -8 0 -12 -4 -9 -9z"/>
<path d="M3036 3077 c3 -10 9 -15 12 -12 3 3 0 11 -7 18 -10 9 -11 8 -5 -6z"/>
<path d="M3060 3058 c0 -4 7 -8 15 -8 8 0 15 4 15 8 0 5 -7 9 -15 9 -8 0 -15
-4 -15 -9z"/>
<path d="M3210 3059 c0 -5 5 -7 10 -4 6 3 10 8 10 11 0 2 -4 4 -10 4 -5 0 -10
-5 -10 -11z"/>
<path d="M3096 3045 c-4 -11 -4 -16 0 -12 4 4 13 2 21 -4 10 -9 13 -8 13 5 0
10 -4 15 -9 12 -5 -4 -11 -1 -13 6 -3 7 -7 4 -12 -7z"/>
<path d="M1298 3044 c-4 -3 -14 -7 -25 -9 -10 -2 -19 -4 -20 -5 -2 -2 -6 -3
-10 -5 -51 -13 -63 -18 -63 -25 0 -4 -16 -15 -36 -26 -40 -21 -70 -45 -147
-116 -27 -27 -52 -48 -54 -48 -2 0 -15 -12 -28 -26 -14 -15 -25 -24 -25 -20 0
4 -15 -10 -32 -31 -18 -21 -35 -40 -38 -43 -19 -19 -70 -91 -70 -99 0 -5 -3
-11 -7 -13 -18 -8 -105 -144 -108 -168 0 -3 -12 -26 -28 -52 -15 -26 -27 -51
-27 -57 0 -6 -4 -11 -10 -11 -5 0 -9 -3 -8 -7 1 -5 -4 -19 -12 -33 -7 -14 -12
-25 -11 -25 2 0 -2 -20 -9 -45 -7 -25 -14 -52 -15 -60 -2 -8 -4 -15 -5 -15 -1
0 -3 -7 -5 -15 -2 -8 -13 -49 -25 -90 -12 -41 -23 -88 -25 -105 -3 -16 -7 -46
-10 -65 -11 -65 -15 -115 -16 -245 -2 -155 1 -215 13 -215 4 0 8 -5 8 -11 0
-5 -5 -7 -12 -3 -7 5 -8 3 -2 -7 5 -8 9 -21 9 -29 0 -8 4 -21 9 -29 6 -10 5
-12 -2 -7 -8 5 -10 2 -6 -8 3 -9 11 -13 17 -9 6 3 7 1 3 -6 -4 -6 -2 -19 6
-28 9 -12 9 -15 1 -9 -19 11 -15 -5 5 -20 16 -13 16 -14 -3 -8 -18 5 -18 4 -3
-6 10 -6 18 -18 18 -26 0 -8 4 -12 10 -9 6 3 7 -1 4 -9 -3 -9 -1 -16 5 -16 6
0 11 -5 11 -11 0 -5 -6 -7 -12 -3 -10 5 -10 4 -1 -6 6 -7 9 -19 6 -26 -3 -8 0
-14 6 -14 6 0 11 -5 11 -11 0 -5 -4 -8 -9 -4 -5 3 1 -15 14 -39 13 -24 21 -47
18 -50 -4 -3 -1 -6 6 -6 7 0 11 -6 9 -12 -3 -7 1 -19 9 -26 7 -7 13 -22 13
-33 0 -10 5 -19 10 -19 6 0 10 5 10 10 0 6 5 10 12 10 9 0 9 -3 0 -12 -18 -18
-16 -44 2 -29 11 9 12 6 8 -14 -2 -15 0 -25 7 -25 7 0 10 -4 6 -9 -3 -5 8 -20
24 -33 16 -13 36 -40 46 -61 10 -21 20 -35 23 -33 3 3 0 12 -6 19 -9 10 -8 14
3 14 7 0 14 -3 13 -6 -2 -25 4 -51 13 -51 5 0 7 6 3 13 -4 7 -3 8 2 4 5 -5 9
-16 9 -25 0 -9 6 -16 14 -14 8 2 11 -3 8 -12 -4 -9 -1 -18 5 -22 7 -4 8 -3 4
4 -4 7 -3 12 2 12 6 0 13 -7 16 -16 9 -23 8 -26 -6 -18 -9 5 -9 3 1 -9 7 -9
17 -15 21 -12 5 3 11 -1 13 -7 4 -10 6 -10 6 0 1 8 13 2 30 -15 16 -15 26 -32
23 -38 -3 -5 1 -4 9 3 17 16 35 16 21 -1 -11 -13 10 -42 22 -30 3 4 6 1 6 -6
0 -8 8 -11 19 -8 15 3 18 1 14 -11 -5 -12 -1 -14 15 -10 15 4 19 2 15 -8 -3
-8 1 -14 8 -14 11 0 11 -3 -1 -10 -9 -6 -10 -10 -3 -10 6 0 15 5 18 10 3 6 14
10 23 9 11 0 12 -3 5 -6 -20 -8 -15 -22 6 -16 11 3 28 -4 40 -16 19 -19 27
-15 22 12 -1 5 3 6 8 2 6 -3 8 -11 5 -18 -2 -7 8 -24 22 -37 15 -14 24 -19 20
-12 -4 6 -3 12 1 12 5 0 15 -6 22 -12 11 -11 12 -10 6 1 -5 9 -4 12 3 7 7 -4
12 -13 12 -21 0 -9 7 -11 22 -7 13 3 19 1 15 -5 -5 -7 1 -9 15 -6 19 4 20 3 8
-6 -8 -6 -10 -11 -5 -11 6 0 16 5 23 12 6 6 15 8 19 4 4 -4 2 -11 -6 -15 -10
-6 -9 -10 4 -14 9 -4 13 -3 10 3 -3 6 1 10 10 10 9 0 14 -3 12 -8 -3 -4 2 -14
11 -22 14 -13 15 -12 10 2 -8 20 12 18 38 -2 16 -14 16 -13 4 10 -12 22 -11
24 2 13 8 -7 17 -10 20 -8 3 3 4 -6 3 -19 -3 -25 -2 -25 21 -9 23 15 24 14 18
-3 -5 -16 -3 -16 14 3 17 19 21 20 26 7 4 -10 2 -13 -7 -8 -9 5 -9 4 -1 -5 6
-7 21 -13 33 -14 11 -1 21 -4 21 -7 0 -4 7 -7 15 -7 8 0 12 4 9 9 -3 4 0 8 5
8 6 0 11 -4 11 -10 0 -5 5 -10 11 -10 5 0 8 4 5 9 -7 11 8 8 44 -6 14 -6 28
-9 33 -6 4 2 7 -1 7 -7 0 -6 4 -9 9 -5 6 3 14 -3 20 -12 10 -17 10 -17 11 1 0
14 3 16 13 7 8 -6 17 -8 20 -4 4 3 7 1 7 -5 0 -7 -6 -12 -12 -12 -9 0 -8 -4 2
-10 20 -13 33 -13 25 0 -8 14 28 13 42 -1 8 -8 13 -7 18 2 6 8 4 10 -5 4 -8
-5 -11 -4 -6 3 8 13 36 5 33 -10 -1 -6 8 -12 21 -13 15 -1 21 3 18 12 -3 7 -1
13 4 13 9 0 14 -15 11 -33 -1 -5 3 -6 9 -2 6 3 8 11 5 16 -9 14 5 11 21 -6 9
-8 25 -15 37 -15 18 0 19 2 7 10 -8 5 -10 10 -4 10 6 0 17 -6 23 -14 11 -13
40 -14 90 -2 13 3 26 8 29 10 2 3 13 1 23 -5 15 -7 19 -7 17 3 -2 8 5 12 20
10 12 -2 22 2 22 8 0 6 -4 9 -8 6 -5 -3 -9 2 -9 11 0 13 4 12 18 -5 9 -12 24
-22 33 -22 8 0 18 -5 21 -10 4 -6 11 -8 16 -4 6 3 5 12 -3 22 -7 10 0 6 15 -8
23 -20 27 -21 21 -6 -5 13 -4 17 3 13 6 -4 14 -1 16 5 3 7 6 2 6 -11 1 -21 3
-22 18 -10 11 10 14 10 9 1 -9 -14 3 -16 24 -2 10 6 11 10 3 10 -7 0 -13 5
-13 11 0 5 5 7 12 3 8 -5 9 -1 4 12 -6 15 -5 17 5 7 7 -7 23 -13 36 -13 21 0
27 -9 24 -35 -1 -5 6 -1 14 9 20 26 43 28 50 5 4 -10 11 -19 16 -19 6 0 7 6 3
13 -4 6 3 3 16 -8 13 -11 20 -15 17 -9 -4 7 0 15 9 18 11 4 15 2 11 -7 -3 -8
1 -14 8 -14 10 0 11 5 4 19 -5 10 -6 18 -2 18 4 0 2 5 -5 12 -9 9 -15 9 -24
-1 -11 -10 -9 -11 7 -5 21 8 21 6 -9 -16 -11 -8 -17 -10 -14 -5 4 6 -2 22 -13
35 -11 14 -18 18 -16 10 2 -8 2 -12 0 -8 -7 12 -4 23 7 24 6 1 15 2 21 3 6 0
8 10 4 24 -5 17 -4 19 4 7 7 -10 11 -11 11 -2 0 6 5 12 11 12 5 0 8 -4 5 -8
-2 -4 7 -9 22 -10 l27 -1 -26 14 c-30 16 -57 14 -70 -6 -7 -11 -9 -11 -9 0 0
8 -6 11 -16 7 -10 -4 -13 -2 -8 6 5 7 2 9 -9 5 -12 -4 -15 -1 -12 16 4 21 4
21 -10 3 -13 -17 -19 -15 -17 5 1 3 -6 6 -14 6 -7 0 -14 -4 -14 -9 0 -4 -5 -8
-11 -8 -5 0 -7 5 -3 12 5 8 0 9 -15 5 -14 -3 -24 0 -28 9 -3 8 -9 14 -15 14
-5 0 -6 -6 -2 -12 4 -7 -3 -4 -16 7 -14 12 -20 14 -15 5 7 -13 6 -13 -7 -2
-10 8 -26 10 -43 6 -20 -5 -23 -9 -13 -15 9 -6 9 -9 1 -9 -18 0 -25 18 -10 27
11 6 11 13 1 31 -11 23 -12 23 -17 3 -3 -12 -11 -21 -19 -21 -10 0 -9 3 2 10
13 8 13 11 1 22 -12 11 -13 10 -7 -2 4 -8 -1 -4 -12 9 -12 16 -22 20 -26 12
-5 -8 -14 -6 -32 5 -13 9 -24 12 -24 8 -1 -5 -8 2 -16 16 -8 14 -13 17 -10 7
6 -20 0 -18 -51 21 -18 13 -33 19 -33 13 0 -6 -5 -11 -11 -11 -5 0 -8 4 -4 9
10 18 -16 23 -29 6 -11 -15 -12 -15 -12 4 0 11 4 17 8 15 4 -3 8 -1 8 5 0 5
-9 13 -20 16 -11 3 -20 13 -20 22 0 12 3 13 14 4 12 -10 13 -8 9 8 -6 24 -31
47 -40 37 -3 -3 -1 -6 5 -6 7 0 12 -5 12 -11 0 -5 -5 -7 -11 -3 -8 5 -10 -1
-5 -19 5 -22 3 -25 -14 -22 -37 7 -44 17 -24 33 18 13 18 14 -3 7 -14 -4 -23
-2 -23 5 0 6 -4 9 -9 6 -5 -3 -12 1 -15 10 -3 8 -11 12 -17 8 -7 -4 -9 -3 -6
3 10 16 -56 43 -77 31 -15 -8 -17 -8 -11 3 20 35 28 40 38 27 6 -9 7 -8 3 5
-7 21 7 22 24 2 10 -12 10 -15 -1 -15 -10 0 -10 -3 -1 -12 14 -14 64 -19 56
-6 -3 4 -10 6 -15 3 -8 -6 -13 9 -10 28 1 5 -3 6 -8 3 -5 -4 -12 -2 -16 4 -3
5 1 10 10 10 14 0 14 2 3 12 -34 33 -45 38 -45 23 0 -8 4 -12 8 -10 4 3 10 -2
13 -11 3 -9 2 -12 -5 -9 -5 4 -16 1 -24 -5 -8 -6 -20 -8 -26 -4 -7 4 -9 3 -5
-4 3 -6 1 -14 -5 -18 -7 -4 -10 -3 -7 2 6 8 -23 43 -30 36 -1 -2 -6 -2 -10 1
-4 2 -2 3 4 1 6 -1 17 3 24 9 10 9 11 9 5 -2 -6 -10 -4 -12 5 -6 9 5 11 4 6
-3 -5 -8 -1 -10 10 -5 15 6 15 7 0 15 -13 7 -14 13 -6 23 8 10 8 15 -1 21 -8
5 -9 3 -4 -6 6 -10 4 -12 -9 -7 -9 4 -14 3 -11 -2 3 -5 1 -13 -5 -16 -6 -4 -9
-1 -8 7 2 7 -3 12 -11 10 -12 -3 -12 0 -1 12 10 13 10 16 -1 16 -12 0 -12 2 0
9 11 7 10 11 -7 20 -26 14 -35 14 -27 1 3 -5 1 -10 -4 -10 -6 0 -11 7 -11 15
0 8 -5 15 -11 15 -5 0 -7 -6 -3 -12 4 -7 -2 -4 -14 6 -25 21 -31 36 -7 16 11
-9 15 -9 15 -1 0 7 6 9 13 6 6 -4 1 3 -12 15 -13 11 -30 19 -37 16 -16 -6 -39
21 -39 46 0 10 -4 17 -10 16 -5 -2 -9 -9 -8 -16 0 -9 -5 -7 -16 5 -16 16 -16
19 -2 31 9 8 10 11 4 7 -9 -4 -11 -1 -7 9 8 20 19 20 49 0 14 -9 25 -14 25
-10 0 3 8 -2 19 -12 35 -32 85 -67 93 -64 4 1 8 -3 8 -9 0 -8 5 -7 15 1 9 7
18 10 22 7 3 -4 13 -1 21 6 13 10 14 9 3 -10 -8 -16 -8 -23 -1 -23 6 0 8 -4 5
-10 -3 -6 1 -7 10 -4 9 4 15 3 14 -2 -3 -19 1 -37 8 -31 3 4 11 3 17 -2 8 -6
11 1 11 25 0 28 -3 33 -20 30 -16 -3 -21 2 -23 22 -2 25 -2 25 13 6 12 -16 14
-16 9 -1 -6 16 10 25 19 10 2 -5 2 -2 1 5 -2 7 2 12 9 10 6 -2 12 2 12 7 0 6
-3 9 -7 7 -5 -1 -8 6 -8 15 0 15 -1 15 -13 -2 -11 -14 -16 -15 -22 -5 -5 9 -4
11 3 6 7 -4 12 -3 12 1 0 5 -9 14 -21 21 -16 10 -19 10 -13 1 5 -9 2 -10 -10
-6 -10 4 -20 7 -23 7 -3 0 1 8 8 17 8 9 9 14 3 10 -7 -4 -15 0 -18 8 -4 10
-14 14 -32 11 -22 -4 -24 -3 -13 10 7 8 8 14 3 13 -16 -2 -54 13 -54 23 0 5
-4 6 -10 3 -5 -3 -10 1 -10 9 0 9 -7 16 -16 16 -8 0 -13 4 -10 8 3 5 -5 8 -17
8 -12 -1 -22 5 -23 12 -1 6 -2 17 -3 22 0 6 -7 10 -14 10 -18 0 -49 35 -40 44
4 4 0 12 -10 17 -9 6 -17 17 -17 24 0 8 -7 15 -15 15 -8 0 -15 9 -15 20 0 11
-5 20 -11 20 -5 0 -8 4 -4 9 3 5 1 12 -4 16 -5 3 -8 14 -6 25 2 11 -1 20 -6
20 -6 0 -8 4 -5 9 7 11 -22 23 -36 14 -6 -3 -8 -1 -4 5 3 6 2 13 -3 17 -6 3
-8 12 -5 20 3 7 0 22 -6 32 -11 17 -11 17 -6 0 4 -11 2 -16 -5 -11 -6 3 -8 15
-6 26 4 13 1 18 -7 15 -8 -3 -12 3 -11 16 2 12 8 21 15 19 11 -3 11 0 0 12
-14 18 -25 22 -15 6 3 -5 1 -10 -5 -10 -7 0 -9 12 -6 30 2 17 0 30 -5 30 -5 0
-9 5 -9 11 0 5 4 8 9 5 5 -4 7 3 4 15 -4 13 -11 18 -22 14 -10 -4 -8 2 7 18
17 18 20 27 11 32 -8 6 -10 4 -4 -5 5 -9 4 -11 -3 -6 -15 9 -16 43 -2 51 8 5
7 12 -1 22 -10 12 -10 16 2 24 12 7 12 9 -1 9 -13 0 -13 1 0 10 10 6 11 10 3
10 -14 0 -13 26 1 49 6 9 5 12 0 8 -5 -3 -10 3 -10 14 0 10 4 19 9 19 4 0 5 5
2 10 -3 6 -2 10 3 10 5 0 9 6 10 13 7 50 10 61 25 72 9 7 14 15 10 18 -3 4 -4
7 0 7 3 0 15 -13 27 -29 20 -29 20 -30 2 -40 -16 -8 -18 -6 -16 20 1 16 -2 26
-7 23 -5 -3 -7 -10 -4 -15 3 -5 -2 -6 -12 -3 -14 5 -15 4 -4 -4 7 -5 10 -15 7
-21 -10 -15 23 -26 37 -12 20 20 28 12 12 -12 -14 -23 -12 -37 7 -37 5 0 6 10
3 21 -5 14 -3 19 3 15 7 -4 9 3 6 20 -5 25 -3 26 13 13 16 -12 16 -11 -1 8
-10 13 -23 20 -27 17 -8 -5 -11 3 -8 22 0 4 -5 11 -13 15 -7 5 -8 9 -3 9 6 0
11 10 12 21 l2 22 -15 -22 c-8 -11 -21 -21 -27 -20 -8 0 -8 2 1 6 10 4 10 8 0
21 -12 15 -11 16 5 3 15 -12 17 -11 17 9 0 16 4 20 15 16 40 -16 49 -19 43
-11 -4 4 0 14 10 22 9 8 11 12 5 8 -16 -7 -17 6 -3 23 6 6 7 10 4 7 -7 -5 -33
24 -34 38 0 4 5 7 11 7 5 0 7 -5 3 -11 -3 -6 5 -3 20 6 22 14 28 35 10 35 -3
0 -3 -4 0 -9 8 -13 -18 -21 -35 -10 -11 7 -11 9 4 9 9 0 17 5 17 11 0 5 -5 7
-12 3 -7 -4 -8 -3 -4 4 5 8 15 8 33 1 14 -5 28 -7 31 -4 4 3 -4 8 -16 12 -23
5 -26 32 -9 61 5 6 6 12 3 12 -3 0 2 9 11 19 13 15 21 18 35 10 10 -5 18 -6
17 -2 -4 23 3 31 24 26 22 -5 22 -5 2 10 -16 12 -16 15 -4 13 31 -4 49 -33 39
-63 -1 -5 -2 -12 -1 -16 1 -5 -3 -6 -9 -2 -5 3 -10 3 -11 -2 0 -4 -2 -16 -4
-26 -2 -9 1 -15 6 -11 5 3 7 10 4 15 -4 5 -1 9 4 9 6 0 11 -7 11 -15 0 -17 42
-15 48 3 2 6 11 8 20 5 11 -3 13 -2 5 4 -7 5 -10 17 -8 28 2 11 4 26 4 34 1
11 5 10 15 -5 16 -21 17 0 2 25 -6 9 -5 12 2 7 6 -3 13 2 16 12 4 10 20 29 37
41 17 13 28 29 26 36 -3 7 1 12 11 11 9 0 16 4 15 11 -2 7 6 10 18 8 18 -4 20
0 16 18 -6 21 -6 21 8 3 13 -17 15 -18 15 -3 0 9 5 16 12 14 7 -1 13 5 13 13
0 8 7 14 14 12 8 -2 21 4 30 11 9 8 24 13 33 12 10 -2 17 0 17 3 -3 21 3 23
16 6 8 -10 15 -14 14 -9 -3 26 4 30 49 29 26 -1 52 2 57 6 6 4 25 11 44 15 27
6 32 4 25 -6 -6 -11 -5 -12 7 -3 8 5 40 10 71 10 32 -1 58 3 58 9 0 6 3 6 8 0
6 -10 15 -11 40 -6 4 1 13 5 20 9 14 9 6 42 -10 42 -5 0 -28 12 -51 28 -46 29
-60 35 -94 36 -13 1 -23 5 -23 10 0 5 -3 7 -6 3 -4 -3 -19 0 -34 8 -15 8 -30
11 -34 8 -3 -4 -6 0 -6 7 0 7 -3 10 -7 7 -3 -4 -13 -1 -21 6 -13 10 -14 9 -7
-2 6 -11 5 -12 -6 -5 -14 9 -34 14 -56 16 -7 1 -13 6 -13 11 0 5 -7 7 -15 3
-8 -3 -15 -1 -15 5 0 6 -4 7 -10 4 -5 -3 -10 -1 -10 5 0 6 -4 9 -9 5 -5 -3
-15 1 -23 8 -7 8 -18 12 -25 10 -6 -2 -21 5 -32 16 -12 12 -21 16 -21 10 0 -7
-11 -4 -26 6 -15 9 -23 12 -19 5 5 -8 0 -7 -14 2 -12 7 -21 16 -21 21 0 4 -4
6 -9 2 -5 -3 -16 2 -25 10 -8 9 -18 16 -21 15 -20 -1 -25 1 -20 9 3 6 -4 8
-15 6 -11 -2 -20 0 -20 5 0 5 -10 12 -22 16 -13 4 -25 10 -28 15 -3 5 -16 10
-28 12 -12 2 -31 13 -42 24 -10 12 -35 26 -55 33 -21 7 -32 16 -29 22 4 6 2 8
-4 4 -6 -3 -13 -2 -17 4 -3 5 -15 10 -26 10 -12 0 -17 4 -14 11 4 6 -2 5 -13
-2 -16 -10 -26 -10 -46 -1 -20 9 -26 9 -26 -1 0 -9 -2 -9 -8 1 -5 7 -11 10
-14 6z m418 -639 c-1 -8 -5 -17 -8 -21 -5 -4 -4 16 1 34 3 9 9 -1 7 -13z m-36
-5 c-18 -12 -30 -13 -30 -2 0 4 10 9 22 9 18 2 20 0 8 -7z m79 -26 c-6 -7 -18
-10 -26 -7 -11 4 -14 2 -9 -5 4 -7 2 -12 -3 -12 -16 0 -13 18 5 28 25 14 46
11 33 -4z m-98 -24 c12 -8 15 -25 4 -28 -5 -2 -16 -9 -23 -15 -7 -6 -12 -6
-10 -1 2 5 -1 10 -7 11 -5 0 -9 -4 -7 -10 1 -7 -7 -1 -19 13 -12 14 -23 24
-25 22 -3 -2 -8 -2 -12 1 -4 2 -2 2 5 1 7 -2 15 2 19 7 4 7 10 7 17 0 17 -17
27 -13 21 7 -5 14 -4 15 5 2 9 -13 11 -12 12 5 0 15 2 16 6 5 3 -8 9 -17 14
-20z m44 -10 c3 -5 2 -10 -4 -10 -5 0 -13 5 -16 10 -3 6 -2 10 4 10 5 0 13 -4
16 -10z m-45 -80 c-20 -13 -30 -12 -30 1 0 5 4 8 9 4 5 -3 13 0 16 6 4 5 10 8
13 4 4 -3 0 -10 -8 -15z m-13 -38 c-1 -22 -27 -26 -27 -5 0 8 5 11 10 8 6 -3
10 -1 10 4 0 6 2 11 4 11 3 0 4 -8 3 -18z m-207 -167 c-5 -6 -7 -15 -3 -18 3
-4 1 -7 -5 -7 -6 0 -14 5 -17 10 -3 6 -2 10 4 10 5 0 8 9 6 21 -4 17 -2 19 11
9 10 -9 11 -16 4 -25z m-770 -1242 c0 -7 0 -16 -1 -20 0 -4 8 -10 18 -14 15
-6 15 -8 2 -8 -9 -1 -22 6 -29 14 -7 8 -9 15 -5 15 4 0 2 6 -4 13 -8 10 -7 14
4 14 8 0 15 -6 15 -14z m1821 -588 c16 5 19 4 14 -6 -6 -9 -3 -11 9 -6 10 4
27 0 39 -8 12 -8 17 -15 11 -15 -5 0 -16 6 -23 13 -12 10 -13 8 -7 -8 4 -11 4
-16 0 -13 -4 4 -16 3 -28 -3 -20 -10 -20 -9 -2 5 18 14 17 15 -10 22 -16 4
-35 14 -42 23 -8 9 -11 10 -7 4 3 -7 1 -13 -4 -13 -15 0 -14 27 2 33 6 2 15
-5 19 -15 6 -14 14 -18 29 -13z"/>
<path d="M1635 2340 c-3 -5 -5 -10 -3 -11 33 -8 38 -7 27 7 -14 17 -16 17 -24
4z"/>
<path d="M1910 3040 c0 -5 5 -10 10 -10 6 0 10 5 10 10 0 6 -4 10 -10 10 -5 0
-10 -4 -10 -10z"/>
<path d="M2660 3041 c0 -10 19 -25 25 -20 1 2 -3 10 -11 17 -8 7 -14 8 -14 3z"/>
<path d="M3226 3042 c-3 -5 1 -9 9 -9 8 0 12 4 9 9 -3 4 -7 8 -9 8 -2 0 -6 -4
-9 -8z"/>
<path d="M2533 3005 c0 -8 4 -12 9 -9 5 3 6 10 3 15 -9 13 -12 11 -12 -6z"/>
<path d="M3096 3005 c-3 -9 0 -15 9 -15 9 0 12 6 9 15 -4 8 -7 15 -9 15 -2 0
-5 -7 -9 -15z"/>
<path d="M2655 3000 c-8 -13 20 -24 40 -16 17 6 20 26 4 26 -5 0 -7 -4 -4 -10
3 -5 -3 -10 -15 -10 -12 0 -18 5 -15 10 3 6 4 10 1 10 -3 0 -8 -5 -11 -10z"/>
<path d="M3250 3006 c0 -2 7 -7 16 -10 8 -3 12 -2 9 4 -6 10 -25 14 -25 6z"/>
<path d="M2716 2983 c-4 -9 -4 -14 0 -10 4 4 14 1 23 -6 14 -11 15 -10 1 8 -8
11 -15 21 -16 23 -1 2 -5 -5 -8 -15z"/>
<path d="M2794 2946 c1 -8 5 -18 8 -22 4 -3 5 1 4 10 -1 8 -5 18 -8 22 -4 3
-5 -1 -4 -10z"/>
<path d="M2781 2874 c0 -11 3 -14 6 -6 3 7 2 16 -1 19 -3 4 -6 -2 -5 -13z"/>
<path d="M2549 2859 c5 -15 7 -29 5 -32 -3 -3 6 -16 20 -30 23 -23 36 -25 36
-5 0 5 -4 7 -9 3 -11 -6 -24 11 -28 35 -1 13 0 13 10 0 7 -9 18 -15 25 -14 6
1 17 2 22 3 7 1 6 7 -2 15 -8 9 -15 10 -19 4 -4 -6 -12 -7 -18 -4 -6 4 -9 11
-7 15 3 4 0 13 -6 21 -8 12 -9 12 -4 -2 3 -10 3 -18 -1 -18 -3 0 -12 8 -19 18
-13 15 -13 14 -5 -9z"/>
<path d="M2496 2863 c-11 -11 -6 -24 6 -17 8 5 9 2 5 -9 -7 -18 -2 -20 27 -8
17 7 17 8 -7 24 -13 9 -27 13 -31 10z"/>
<path d="M2678 2823 c7 -3 16 -2 19 1 4 3 -2 6 -13 5 -11 0 -14 -3 -6 -6z"/>
<path d="M2783 2798 c12 -28 37 -38 37 -16 0 6 -3 9 -6 5 -4 -3 -15 4 -25 16
l-19 22 13 -27z"/>
<path d="M2875 2811 c-3 -5 -2 -12 3 -15 5 -3 9 1 9 9 0 17 -3 19 -12 6z"/>
<path d="M2620 2786 c0 -2 7 -6 15 -10 8 -3 15 -1 15 4 0 6 -7 10 -15 10 -8 0
-15 -2 -15 -4z"/>
<path d="M2667 2769 c7 -7 15 -10 18 -7 3 3 -2 9 -12 12 -14 6 -15 5 -6 -5z"/>
<path d="M2698 2758 c-5 -11 -2 -15 10 -13 9 1 24 -3 32 -9 13 -10 13 -9 1 6
-7 10 -17 16 -21 13 -5 -3 -10 0 -12 7 -3 8 -6 6 -10 -4z"/>
<path d="M2819 2733 c-13 -17 -13 -17 6 -3 11 8 22 16 24 17 2 2 0 3 -6 3 -6
0 -17 -8 -24 -17z"/>
<path d="M2710 2700 c0 -13 11 -13 30 0 12 8 11 10 -7 10 -13 0 -23 -4 -23
-10z"/>
<path d="M1930 2479 c0 -5 5 -7 10 -4 6 3 10 8 10 11 0 2 -4 4 -10 4 -5 0 -10
-5 -10 -11z"/>
<path d="M1590 2259 c0 -5 5 -7 10 -4 6 3 10 8 10 11 0 2 -4 4 -10 4 -5 0 -10
-5 -10 -11z"/>
<path d="M1505 2250 c-3 -5 -3 -10 1 -10 3 0 -1 -11 -10 -25 -15 -23 -15 -25
5 -35 11 -7 23 -9 27 -6 3 3 0 6 -6 6 -7 0 -12 12 -12 26 0 17 4 23 13 18 7
-5 6 0 -3 11 -14 17 -13 18 3 12 11 -4 16 -3 12 3 -8 13 -22 13 -30 0z"/>
<path d="M1555 2191 c20 -23 22 -57 4 -75 -16 -17 -10 -27 10 -15 10 7 17 21
16 33 0 12 3 28 9 36 6 8 6 12 1 7 -4 -4 -20 3 -34 15 l-26 23 20 -24z"/>
<path d="M1609 2152 c-1 -4 -1 -10 0 -14 0 -5 -4 -8 -11 -8 -6 0 -8 -3 -5 -7
4 -3 0 -14 -9 -24 -15 -17 -15 -18 7 -14 25 5 41 24 34 42 -2 6 1 13 8 16 6 2
4 6 -6 10 -9 3 -18 3 -18 -1z"/>
<path d="M1543 2065 c0 -7 8 -10 19 -7 10 2 18 6 18 7 0 1 -8 5 -18 7 -11 3
-19 0 -19 -7z"/>
<path d="M1592 2058 c2 -7 -4 -12 -12 -10 -8 2 -12 0 -8 -4 4 -4 3 -13 -2 -19
-7 -9 -5 -16 7 -26 15 -11 16 -11 6 1 -10 11 -9 18 8 36 14 14 17 24 10 29 -7
4 -10 1 -9 -7z"/>
<path d="M1519 1978 c-6 -21 -5 -37 2 -32 5 3 7 10 4 15 -4 5 -1 9 4 9 6 0 11
-4 11 -10 0 -5 8 -6 17 -3 15 6 15 7 -3 14 -20 8 -34 11 -35 7z"/>
<path d="M1517 1913 c-11 -10 -8 -20 7 -26 8 -3 13 0 12 8 -3 19 -11 27 -19
18z"/>
<path d="M1345 1870 c-3 -5 3 -14 14 -20 26 -13 35 2 11 18 -11 7 -21 8 -25 2z"/>
<path d="M1535 1860 c-3 -5 -1 -10 4 -10 6 0 11 5 11 10 0 6 -2 10 -4 10 -3 0
-8 -4 -11 -10z"/>
<path d="M1350 1821 c5 -10 7 -20 5 -23 -2 -2 5 -4 15 -5 11 -1 20 3 20 9 0 6
6 6 15 -2 13 -11 14 -10 9 4 -3 9 -7 16 -8 16 0 0 -16 4 -34 9 -29 9 -31 8
-22 -8z m40 -5 c0 -3 -4 -8 -10 -11 -5 -3 -10 -1 -10 4 0 6 5 11 10 11 6 0 10
-2 10 -4z"/>
<path d="M1375 1740 c-3 -5 -1 -10 5 -10 6 0 8 -5 4 -12 -4 -7 -3 -8 4 -4 6 4
9 13 5 21 -6 18 -10 19 -18 5z"/>
<path d="M1425 1718 c2 -10 -2 -18 -8 -18 -6 0 -8 -3 -4 -6 3 -3 14 -1 24 5
10 6 13 11 6 11 -6 0 -13 6 -16 13 -2 6 -3 4 -2 -5z"/>
<path d="M1608 862 c-19 -4 -24 -27 -9 -36 10 -7 35 19 29 32 -1 4 -11 6 -20
4z"/>
<path d="M1913 858 c-24 -12 -33 -60 -10 -55 6 1 11 -4 9 -11 -1 -8 2 -11 8
-7 8 5 5 13 -6 27 -18 19 -17 19 9 9 31 -12 44 1 22 22 -11 12 -12 17 -2 20 6
3 8 5 2 6 -5 0 -20 -5 -32 -11z"/>
<path d="M1989 828 c-8 -27 -5 -35 12 -31 15 4 17 8 8 19 -11 13 -18 17 -20
12z"/>
<path d="M2090 767 c0 -9 4 -18 9 -21 5 -4 8 1 7 9 -3 21 -16 31 -16 12z"/>
<path d="M1941 762 c-1 -7 -6 -10 -13 -6 -6 4 -8 3 -4 -4 3 -6 2 -13 -3 -17
-11 -6 -4 -35 7 -33 21 2 32 -3 26 -14 -4 -7 -3 -8 4 -4 6 4 9 13 6 21 -4 8
-10 13 -14 10 -4 -3 -10 2 -14 10 -3 8 -1 17 4 20 4 3 10 0 12 -7 3 -7 7 -5
11 6 4 9 3 15 -2 11 -5 -3 -12 1 -14 7 -4 10 -6 10 -6 0z"/>
<path d="M1975 740 c-3 -5 1 -10 10 -10 9 0 13 5 10 10 -3 6 -8 10 -10 10 -2
0 -7 -4 -10 -10z"/>
<path d="M2253 737 c-22 -12 -22 -13 -3 -25 20 -12 37 -1 26 17 -4 5 0 12 6
14 7 3 9 6 3 6 -5 0 -20 -5 -32 -12z"/>
<path d="M2113 708 c-8 -9 -9 -19 -3 -28 7 -11 10 -11 10 -2 0 10 5 10 23 2
19 -9 20 -9 6 2 -9 7 -18 19 -20 27 -4 11 -7 11 -16 -1z"/>
<path d="M2192 692 c-10 -10 -12 -13 -5 -9 6 5 16 7 20 4 4 -2 17 -1 27 3 19
6 19 7 -2 12 -13 4 -29 0 -40 -10z"/>
<path d="M2383 686 c0 -7 11 -12 24 -12 20 0 34 15 16 17 -5 0 -15 2 -24 4 -9
1 -16 -3 -16 -9z"/>
<path d="M2226 647 c-25 -22 -26 -37 -2 -37 6 0 4 5 -4 11 -11 8 -7 9 19 5 18
-3 39 -6 45 -6 6 0 4 -5 -4 -10 -11 -7 -8 -8 13 -6 15 1 30 6 35 11 4 4 2 6
-3 2 -6 -3 -16 3 -23 14 -14 21 -3 26 17 7 11 -11 11 -9 1 7 -7 12 -22 22 -34
23 -11 0 -16 -2 -11 -6 13 -9 17 -32 6 -32 -5 0 -17 3 -25 6 -13 5 -14 9 -5
20 17 21 5 17 -25 -9z"/>
<path d="M2453 645 c0 -8 4 -12 9 -9 5 3 6 10 3 15 -9 13 -12 11 -12 -6z"/>
<path d="M1893 638 c3 -9 1 -19 -6 -21 -7 -3 -2 -4 10 -4 18 1 20 4 10 17 -19
25 -20 26 -14 8z"/>
<path d="M1933 613 c1 -25 21 -31 33 -10 4 6 4 9 -1 5 -4 -4 -14 0 -21 10 -12
16 -13 15 -11 -5z"/>
<path d="M2353 613 c1 -17 4 -19 14 -11 15 12 18 22 4 14 -5 -4 -11 0 -14 6
-3 7 -4 3 -4 -9z"/>
<path d="M2390 622 c0 -6 9 -12 20 -15 11 -3 20 -1 20 5 0 5 6 6 13 2 6 -4 8
-3 4 1 -11 13 -57 18 -57 7z"/>
<path d="M2465 600 c-4 -6 -2 -17 4 -24 6 -7 8 -16 4 -19 -3 -4 -1 -7 5 -7 7
0 12 6 12 14 0 8 2 20 3 28 2 7 2 10 0 6 -3 -5 -9 -8 -14 -8 -6 0 -7 5 -4 10
3 6 4 10 1 10 -3 0 -8 -5 -11 -10z"/>
<path d="M2615 601 c-3 -5 -2 -12 3 -15 5 -3 9 1 9 9 0 17 -3 19 -12 6z"/>
<path d="M1960 580 c-8 -5 -23 -7 -34 -4 -13 5 -16 3 -11 -7 6 -9 3 -11 -10
-5 -15 5 -16 4 -5 -9 14 -17 60 -17 53 0 -2 7 6 17 19 23 13 6 19 11 13 11 -5
0 -17 -4 -25 -9z"/>
<path d="M2276 578 c5 -8 2 -9 -11 -4 -15 5 -16 4 -6 -8 14 -17 37 -12 45 10
4 9 -1 14 -15 14 -13 0 -18 -4 -13 -12z"/>
<path d="M2538 578 c9 -11 10 -18 2 -23 -5 -3 -10 0 -10 7 -1 8 -7 5 -18 -7
-21 -25 -65 -29 -59 -5 2 9 -1 17 -8 17 -8 0 -11 -7 -7 -15 3 -10 1 -13 -6 -8
-7 4 -20 2 -29 -3 -11 -6 -13 -11 -5 -11 7 0 11 -4 8 -9 -3 -4 2 -8 12 -8 41
0 53 -4 46 -14 -5 -8 -1 -8 14 0 11 6 28 8 36 5 10 -4 16 -1 16 9 0 10 7 15
20 12 12 -2 24 4 31 16 10 19 9 20 -10 9 -23 -12 -28 -1 -9 18 8 8 17 8 30 1
19 -10 19 -11 -3 -35 -15 -16 -18 -24 -9 -24 9 0 7 -5 -5 -14 -11 -8 -24 -12
-29 -9 -5 4 -6 1 -2 -5 5 -9 13 -9 28 -1 18 10 20 9 14 -7 -5 -15 -4 -16 4 -7
9 8 20 8 45 -3 28 -12 35 -11 45 1 7 8 9 15 4 15 -5 0 -4 4 2 8 7 4 8 15 3 27
-6 17 -8 17 -8 3 -1 -11 -6 -15 -16 -12 -8 4 -12 10 -9 15 3 5 -2 9 -11 9 -10
0 -15 7 -13 17 2 10 -1 18 -7 18 -5 0 -20 6 -32 13 -15 8 -24 9 -28 2 -5 -8
-12 -7 -23 2 -15 11 -15 11 -4 -4z m85 -33 c-3 -9 -8 -14 -10 -11 -3 3 -2 9 2
15 9 16 15 13 8 -4z m-99 -20 c-4 -8 -10 -13 -15 -10 -4 3 -6 12 -3 20 4 8 10
13 15 10 4 -3 6 -12 3 -20z m100 -27 c-5 -7 -2 -9 8 -5 9 3 24 -1 35 -8 17
-13 17 -14 1 -15 -10 0 -18 5 -18 11 0 5 -4 7 -10 4 -13 -8 -32 4 -25 16 4 5
8 9 11 9 3 0 2 -5 -2 -12z"/>
<path d="M2676 560 c-19 -6 -19 -7 2 -12 12 -4 24 -2 27 2 8 13 -8 18 -29 10z"/>
<path d="M2773 536 c6 -15 5 -16 -6 -8 -10 8 -13 6 -13 -9 0 -14 5 -17 19 -13
15 5 17 3 12 -7 -5 -8 -4 -10 0 -6 15 13 14 36 -3 49 -14 11 -15 10 -9 -6z"/>
<path d="M2719 513 c-13 -16 -12 -17 4 -4 16 13 21 21 13 21 -2 0 -10 -8 -17
-17z"/>
<path d="M1930 506 c0 -2 7 -7 16 -10 8 -3 12 -2 9 4 -6 10 -25 14 -25 6z"/>
<path d="M2030 506 c0 -2 7 -7 16 -10 8 -3 12 -2 9 4 -6 10 -25 14 -25 6z"/>
<path d="M2074 487 c8 -47 46 -80 43 -38 -1 12 -6 17 -16 13 -8 -3 -12 -1 -9
4 4 5 0 18 -8 29 -14 19 -15 19 -10 -8z"/>
<path d="M2793 477 c-4 -6 -1 -7 7 -2 9 5 11 4 6 -3 -5 -9 -13 -9 -26 -2 -28
15 -30 -2 -3 -27 21 -20 27 -21 24 -1 0 4 6 5 14 2 8 -4 12 -11 8 -17 -4 -6 2
-8 15 -5 12 4 20 3 17 -2 -3 -4 2 -10 10 -14 8 -3 15 0 15 7 0 8 3 7 9 -2 13
-21 44 -24 37 -4 -5 13 -4 14 9 3 12 -10 15 -10 15 1 0 22 -17 42 -29 35 -6
-4 -11 -3 -11 2 0 5 -8 9 -17 9 -37 0 -44 3 -37 16 5 8 2 8 -9 -2 -15 -12 -21
-9 -19 10 1 10 -29 6 -35 -4z"/>
<path d="M2040 466 c0 -2 7 -9 15 -16 9 -7 15 -8 15 -2 0 5 -7 12 -15 16 -8 3
-15 4 -15 2z"/>
<path d="M2953 445 c0 -8 4 -12 9 -9 5 3 6 10 3 15 -9 13 -12 11 -12 -6z"/>
<path d="M2180 450 c-7 -23 -6 -39 2 -51 8 -11 9 -11 5 3 -3 9 1 19 9 22 8 3
14 11 14 18 0 10 -2 10 -9 -1 -7 -11 -9 -11 -14 0 -3 8 -6 12 -7 9z"/>
<path d="M2606 438 c3 -5 10 -6 15 -3 13 9 11 12 -6 12 -8 0 -12 -4 -9 -9z"/>
<path d="M2230 416 c0 -2 7 -9 15 -16 13 -11 14 -10 9 4 -5 14 -24 23 -24 12z"/>
<path d="M2323 393 c-7 -3 -13 -12 -13 -21 1 -15 3 -14 17 3 10 13 14 14 10 4
-3 -9 3 -21 15 -28 17 -11 18 -10 9 8 -8 14 -8 20 1 23 7 3 4 7 -7 10 -11 2
-26 3 -32 1z"/>
<path d="M3055 380 c-4 -6 -3 -16 3 -22 13 -13 23 4 13 21 -7 10 -10 10 -16 1z"/>
<path d="M3086 378 c3 -4 9 -8 15 -8 5 0 9 4 9 8 0 5 -7 9 -15 9 -8 0 -12 -4
-9 -9z"/>
<path d="M2323 335 c0 -8 4 -12 9 -9 5 3 6 10 3 15 -9 13 -12 11 -12 -6z"/>
<path d="M2650 286 c0 -8 5 -18 10 -21 6 -3 10 1 10 9 0 8 -4 18 -10 21 -5 3
-10 -1 -10 -9z"/>
<path d="M2630 275 c0 -8 4 -15 10 -15 5 0 7 7 4 15 -4 8 -8 15 -10 15 -2 0
-4 -7 -4 -15z"/>
<path d="M2725 260 c-3 -6 -3 -10 2 -10 4 0 2 -4 -5 -9 -11 -6 -10 -9 5 -13
28 -7 45 16 22 30 -11 7 -20 8 -24 2z"/>
<path d="M2622 184 c-15 -30 -15 -46 -1 -22 7 13 15 15 33 8 13 -5 27 -6 30
-3 3 4 6 -1 6 -10 0 -9 4 -19 10 -22 6 -3 7 1 4 10 -4 9 -3 15 2 14 23 -4 32
3 27 21 -3 11 -9 17 -14 14 -5 -3 -9 1 -9 8 0 8 -3 9 -8 3 -8 -13 -22 -13 -41
-1 -11 7 -12 6 -6 -5 7 -11 6 -12 -7 -2 -12 11 -17 9 -26 -13z"/>
<path d="M2775 160 c-4 -6 -10 -8 -15 -5 -4 3 -11 -2 -14 -10 -4 -12 -2 -13
13 -5 14 7 21 6 24 -3 3 -6 4 -2 4 11 -1 25 -3 26 -12 12z"/>
<path d="M2835 160 c4 -6 11 -8 16 -5 14 9 11 15 -7 15 -8 0 -12 -5 -9 -10z"/>
<path d="M2898 159 c-5 -13 -16 -16 -43 -13 -21 2 -33 -1 -30 -6 4 -6 15 -10
26 -10 10 0 19 -4 19 -10 0 -5 5 -10 11 -10 8 0 7 6 -2 18 -11 14 -10 13 9 -2
13 -12 22 -14 22 -7 0 7 5 9 10 6 6 -3 10 -1 10 4 0 6 -4 11 -9 11 -5 0 -11 8
-13 18 -3 15 -4 15 -10 1z"/>
</g>
</svg>
